<svg xmlns="http://www.w3.org/2000/svg" width="4096" height="4096" viewBox="0 0 4096 4096" version="1.1"><path d="M 1146 1437.657 C 1144.625 1437.890, 1135.400 1439.414, 1125.500 1441.045 C 1096.402 1445.837, 1056.490 1455.366, 1057.651 1457.244 C 1058.101 1457.973, 1056.984 1464.277, 1055.345 1470.250 C 1054.979 1471.587, 1055.471 1472, 1057.433 1472 C 1060.526 1472, 1060.535 1472.174, 1058.078 1484.140 C 1056.406 1492.285, 1052.479 1516.757, 1050.520 1531.250 C 1049.962 1535.375, 1049.571 1536, 1047.546 1536 C 1044.863 1536, 1044 1537.662, 1044 1542.832 L 1044 1546.500 1068.250 1546.538 C 1100.593 1546.588, 1122.112 1549.062, 1151 1556.053 C 1170.729 1560.827, 1202.450 1571.462, 1201.508 1572.987 C 1201.260 1573.388, 1197.557 1574.264, 1193.279 1574.934 C 1169.633 1578.634, 1126.684 1589.106, 1095 1598.898 C 1077.164 1604.410, 1040.292 1617.375, 1039.121 1618.545 C 1038.386 1619.281, 1040.642 1675.976, 1041.439 1676.772 C 1041.817 1677.151, 1044.686 1676.492, 1047.813 1675.309 C 1110.722 1651.514, 1160.594 1637.161, 1206.642 1629.600 C 1214.814 1628.258, 1223.683 1626.864, 1226.351 1626.503 L 1231.202 1625.847 1218.275 1641.174 C 1168.948 1699.655, 1126.664 1759.828, 1086.028 1829.370 L 1076.755 1845.240 1077.949 1849.224 C 1078.605 1851.415, 1079.384 1853.836, 1079.678 1854.604 C 1080.052 1855.579, 1079.427 1856, 1077.607 1856 C 1076.173 1856, 1075 1856.400, 1075 1856.889 C 1075 1859.036, 1089.326 1898.714, 1095.169 1912.750 C 1097.855 1919.203, 1098.482 1920, 1100.874 1920 C 1102.970 1920, 1103.823 1920.693, 1104.749 1923.147 C 1105.402 1924.877, 1105.693 1926.688, 1105.394 1927.171 C 1105.096 1927.654, 1105.222 1927.968, 1105.676 1927.868 C 1106.129 1927.769, 1109.091 1928.879, 1112.258 1930.335 C 1137.365 1941.878, 1188.050 1958.595, 1218.630 1965.420 C 1248.489 1972.083, 1288.146 1977.899, 1319.466 1980.206 L 1336 1981.424 1335.987 2034.462 C 1335.972 2100.812, 1334.436 2151.785, 1330.939 2202 C 1329.197 2227.025, 1329.129 2228.540, 1329.823 2226.841 C 1330.378 2225.481, 1332.668 2226.821, 1342.500 2234.254 C 1359.656 2247.225, 1381.027 2262, 1382.631 2262 C 1383.384 2262, 1384.002 2261.438, 1384.004 2260.750 C 1384.006 2260.063, 1384.657 2252.300, 1385.451 2243.500 C 1386.979 2226.562, 1389.395 2191.083, 1391.001 2162 C 1391.533 2152.375, 1392.514 2108.409, 1393.182 2064.297 L 1394.397 1984.094 1399.448 1983.589 C 1402.227 1983.311, 1410.125 1982.583, 1417 1981.971 C 1463.734 1977.813, 1516.485 1962.362, 1565.878 1938.365 C 1575.435 1933.721, 1583.417 1930.083, 1583.614 1930.280 C 1584.402 1931.069, 1598.036 1960.189, 1602.444 1970.500 C 1647.760 2076.495, 1666.712 2198.618, 1653 2296.261 C 1651.611 2306.156, 1650.764 2309.470, 1649.346 2310.566 C 1645.219 2313.754, 1596.562 2337.207, 1583.773 2342.171 C 1576.223 2345.102, 1570.185 2347.950, 1570.354 2348.500 C 1570.920 2350.331, 1629.649 2366.845, 1636.394 2367.070 C 1638.306 2367.134, 1638.330 2367.208, 1636.657 2367.866 C 1633.054 2369.284, 1688.037 2378.614, 1715.368 2381.223 C 1724.201 2382.066, 1728.395 2382.866, 1728.744 2383.775 C 1729.364 2385.391, 1732.568 2380.717, 1745.044 2360 C 1763.021 2330.150, 1780.961 2292.452, 1794.049 2257.027 C 1803.442 2231.602, 1816.999 2184.338, 1817.003 2177 C 1817.005 2174.525, 1817.926 2167.775, 1819.050 2162 C 1831.055 2100.321, 1833.105 2032.396, 1824.888 1968.500 C 1819.688 1928.067, 1809.325 1884.679, 1795.869 1847 C 1788.974 1827.692, 1781.174 1808.858, 1778.437 1804.909 C 1770.616 1793.624, 1754.065 1789.276, 1741.818 1795.290 C 1731.599 1800.308, 1725.590 1809.731, 1725.739 1820.500 C 1725.806 1825.284, 1726.767 1828.730, 1730.482 1837.500 C 1750.062 1883.729, 1763.881 1938.499, 1769.591 1992.500 C 1771.757 2012.986, 1772.507 2055.991, 1771.081 2078 C 1768.265 2121.480, 1759.826 2169.410, 1750.932 2192.437 C 1742.892 2213.251, 1731.864 2232.447, 1719.318 2247.464 L 1713.500 2254.427 1712.848 2225.964 C 1711.729 2177.043, 1707.314 2137.247, 1697.887 2091.102 C 1684.732 2026.712, 1663.288 1964.635, 1634.357 1907.200 L 1627.154 1892.899 1631.327 1889.096 C 1633.622 1887.005, 1637.231 1883.793, 1639.347 1881.959 C 1651.623 1871.314, 1672.876 1842.614, 1682.824 1823.248 C 1694.049 1801.394, 1704 1772.190, 1704 1761.098 C 1704 1749.078, 1697.598 1739.091, 1686.540 1733.859 C 1679.723 1730.634, 1674.803 1730.275, 1667.424 1732.467 C 1656.539 1735.699, 1649.558 1743.811, 1646.087 1757.260 C 1637.748 1789.575, 1625.502 1813.375, 1606.018 1835.136 C 1598.525 1843.506, 1600.550 1844.775, 1588.248 1824 C 1548.524 1756.920, 1483.289 1682.717, 1411.685 1623.163 L 1401.869 1615 1406.305 1615 C 1413.295 1615, 1438.942 1617.835, 1457 1620.604 C 1513.432 1629.257, 1566.386 1645.600, 1616.500 1669.830 C 1635.693 1679.110, 1636.762 1679.497, 1643 1679.423 C 1662.073 1679.198, 1675.433 1659.479, 1668.606 1641.631 C 1666.614 1636.424, 1651.021 1614.961, 1639.088 1601 C 1628.170 1588.228, 1605.994 1566.115, 1592.635 1554.680 C 1528.892 1500.117, 1448.284 1463.017, 1354.500 1445.076 C 1313.022 1437.141, 1320.599 1437.608, 1230 1437.411 C 1185.175 1437.314, 1147.375 1437.424, 1146 1437.657 M 1171.043 1497.221 L 1160.586 1498.247 1177.543 1502.533 C 1196.905 1507.426, 1233.238 1519.558, 1243.250 1524.474 C 1246.963 1526.296, 1250 1527.433, 1250 1526.999 C 1250 1525.629, 1238.993 1510.686, 1234.657 1506.170 C 1232.371 1503.789, 1228.475 1500.639, 1226 1499.170 C 1221.555 1496.533, 1221.257 1496.498, 1201.500 1496.348 C 1190.500 1496.264, 1176.794 1496.657, 1171.043 1497.221 M 1297 1499.476 C 1297 1499.841, 1298.335 1502.080, 1299.967 1504.451 C 1303.714 1509.899, 1313.712 1528.743, 1316.520 1535.652 L 1318.652 1540.897 1323.576 1537.350 C 1334.526 1529.463, 1347.025 1521.269, 1356.326 1515.878 C 1363.550 1511.690, 1365.668 1510.035, 1364.326 1509.624 C 1360.827 1508.553, 1335.401 1504.104, 1321.500 1502.130 C 1300.144 1499.098, 1297 1498.757, 1297 1499.476 M 1429.500 1540.379 C 1412.635 1547.241, 1393 1557.262, 1393 1559.006 C 1393 1559.331, 1398.343 1560.131, 1404.874 1560.784 C 1430.586 1563.354, 1484.425 1571.402, 1512.935 1576.937 C 1518.675 1578.051, 1523.491 1578.842, 1523.638 1578.695 C 1524.224 1578.109, 1495.546 1560.731, 1481.471 1553.143 C 1469.775 1546.837, 1443.986 1534.792, 1442.723 1535.044 C 1442.600 1535.069, 1436.650 1537.469, 1429.500 1540.379 M 1281.375 1657.267 C 1229.911 1714.204, 1180.434 1783.469, 1133.235 1864.652 L 1126.170 1876.804 1145.835 1883.776 C 1177.697 1895.073, 1212.904 1905.177, 1234 1909.078 C 1237.575 1909.739, 1241.175 1910.852, 1242 1911.551 C 1246.613 1915.461, 1305.349 1924, 1327.626 1924 L 1334.144 1924 1333.604 1918.750 C 1333.307 1915.862, 1332.805 1908.775, 1332.490 1903 C 1329.430 1847.032, 1319.712 1772.023, 1307.438 1709.632 C 1302.072 1682.358, 1294.104 1646.809, 1293.123 1645.767 C 1292.744 1645.363, 1287.457 1650.538, 1281.375 1657.267 M 1360.055 1675.750 C 1372.197 1732.381, 1381.664 1797.725, 1386.966 1861.500 C 1389.076 1886.889, 1391 1915.193, 1391 1920.862 L 1391 1924.258 1401.250 1923.560 C 1439.624 1920.948, 1479.976 1911.851, 1515.500 1897.803 C 1529.165 1892.399, 1555 1879.902, 1555 1878.696 C 1555 1877.139, 1545.718 1862.047, 1532.738 1842.500 C 1486.787 1773.297, 1429.502 1710.905, 1368.738 1663.877 C 1361.719 1658.445, 1355.844 1654, 1355.684 1654 C 1355.523 1654, 1357.490 1663.787, 1360.055 1675.750" stroke="none" fill="#20b2ea" fill-rule="evenodd"/><path d="M 1033 1463.904 C 937.216 1495.909, 853.471 1548.274, 784 1619.602 C 684.655 1721.603, 626.384 1846.766, 611.326 1990.500 C 609.072 2012.011, 608.756 2082.574, 610.815 2104.500 C 614.127 2139.768, 619.604 2172.243, 627.091 2201 C 629.310 2209.525, 632.008 2220.760, 633.085 2225.968 C 636.869 2244.256, 650.469 2280.998, 665.066 2312.370 C 711.393 2411.940, 785.052 2497.660, 877.856 2560.004 C 917.706 2586.774, 969.214 2612.696, 1013.500 2628.270 C 1046.777 2639.972, 1074.242 2647.338, 1107.539 2653.491 C 1137.521 2659.031, 1136.901 2659, 1216.794 2659 C 1300.494 2659, 1298.837 2659.110, 1338.797 2650.873 C 1406.360 2636.946, 1470.989 2611.710, 1530 2576.214 C 1552.222 2562.847, 1565.800 2553.143, 1600 2526.187 C 1645.572 2490.268, 1694.350 2437.795, 1724.470 2392.288 C 1727.095 2388.321, 1729.016 2384.485, 1728.739 2383.763 C 1728.396 2382.869, 1724.136 2382.059, 1715.368 2381.223 C 1688.037 2378.614, 1633.054 2369.284, 1636.657 2367.866 C 1638.338 2367.204, 1638.316 2367.134, 1636.414 2367.070 C 1631.139 2366.893, 1573.320 2351.126, 1570.500 2349.097 C 1569.407 2348.310, 1568.296 2348.354, 1566 2349.274 C 1565.175 2349.605, 1558.425 2351.673, 1551 2353.870 C 1509.683 2366.095, 1474.299 2373.395, 1434.081 2377.991 C 1415.693 2380.092, 1370.397 2382.730, 1369.423 2381.756 C 1369.107 2381.441, 1370.677 2368.429, 1372.911 2352.841 C 1375.144 2337.254, 1378.312 2312.575, 1379.950 2298 C 1384.263 2259.628, 1384.089 2262, 1382.594 2262 C 1379.930 2262, 1330.624 2226.311, 1329.725 2223.733 C 1329.489 2223.055, 1329.280 2223.850, 1329.261 2225.500 C 1329.185 2232.076, 1323.051 2286.206, 1319.403 2312.500 C 1316.890 2330.616, 1311.860 2362.002, 1309.909 2371.750 L 1308.858 2377 1296.179 2376.999 C 1260.695 2376.996, 1212.256 2371.068, 1161.952 2360.572 C 1116.857 2351.162, 1087.980 2343.398, 1050 2330.468 C 1014.534 2318.394, 959.814 2295.641, 959.205 2292.714 C 958.789 2290.711, 969.845 2247.042, 977.581 2220.138 C 1000.400 2140.770, 1028.234 2070.048, 1071.696 1981 C 1079.884 1964.225, 1089.264 1944.786, 1092.541 1937.801 C 1096.980 1928.342, 1098.883 1925.239, 1100 1925.638 C 1100.825 1925.932, 1102.333 1926.341, 1103.352 1926.548 C 1104.371 1926.755, 1105.767 1927.391, 1106.454 1927.962 C 1107.142 1928.533, 1106.759 1926.995, 1105.602 1924.546 C 1103.905 1920.949, 1102.988 1920.083, 1100.843 1920.046 C 1098.502 1920.005, 1097.828 1919.138, 1095.169 1912.750 C 1089.326 1898.714, 1075 1859.036, 1075 1856.889 C 1075 1856.400, 1076.125 1856, 1077.500 1856 C 1078.875 1856, 1080 1855.855, 1080 1855.678 C 1080 1855.501, 1079.260 1853.184, 1078.356 1850.530 L 1076.711 1845.704 1075.324 1848.352 C 1074.560 1849.808, 1073.573 1851, 1073.130 1851 C 1071.970 1851, 1047.247 1833.995, 1035.594 1825.182 C 999.692 1798.031, 976.048 1773.319, 951.762 1737.565 L 945.013 1727.630 950.757 1724.003 C 969.093 1712.423, 1009.303 1691.695, 1032.881 1681.668 C 1038.590 1679.240, 1042.704 1677.068, 1042.022 1676.841 C 1041.112 1676.537, 1040.481 1668.851, 1039.642 1647.867 C 1038.628 1622.516, 1038.318 1619.332, 1036.882 1619.545 C 1034.055 1619.963, 1008.159 1630.990, 989 1639.934 C 971.683 1648.018, 951.293 1658.476, 934.098 1668.095 L 926.696 1672.236 927.309 1655.868 C 928.152 1633.345, 930.785 1622.426, 939.699 1604.500 C 945.803 1592.223, 953.741 1581.489, 963.948 1571.710 C 975.686 1560.463, 979.290 1558.227, 990.179 1555.440 C 1002.415 1552.308, 1030.717 1547.634, 1042.750 1546.758 C 1043.512 1546.702, 1044 1545.201, 1044 1542.915 C 1044 1537.661, 1044.852 1536, 1047.546 1536 C 1049.571 1536, 1049.962 1535.375, 1050.520 1531.250 C 1052.479 1516.757, 1056.406 1492.285, 1058.078 1484.140 C 1060.529 1472.202, 1060.519 1472, 1057.481 1472 C 1054.762 1472, 1054.765 1472.074, 1057.091 1463 C 1058.418 1457.828, 1058.231 1456.997, 1055.750 1457.027 C 1054.513 1457.042, 1044.275 1460.137, 1033 1463.904 M 862.980 1625.751 C 846.293 1639.956, 813.091 1673.305, 799.015 1690 C 755.829 1741.220, 723.032 1797.368, 701.082 1857.664 C 696.490 1870.276, 687.977 1897.098, 688.014 1898.837 C 688.022 1899.202, 689.859 1896.125, 692.098 1892 C 700.930 1875.722, 721.970 1847.382, 744.436 1821.500 C 778.188 1782.617, 819.955 1744.743, 863.500 1713.535 C 869.550 1709.199, 874.849 1705.358, 875.276 1704.999 C 875.703 1704.641, 875.382 1701.457, 874.563 1697.924 C 868.669 1672.486, 868.442 1644.281, 873.960 1622.680 C 874.968 1618.731, 875.719 1615.416, 875.627 1615.313 C 875.535 1615.211, 869.844 1619.908, 862.980 1625.751 M 3275.500 1635.116 C 3144.555 1644.191, 3035.716 1706.988, 2974.991 1808.500 C 2945.646 1857.555, 2927.611 1914.473, 2920.333 1981 C 2918.059 2001.779, 2917.749 2067.540, 2919.821 2089.500 C 2929.319 2190.163, 2957.391 2266.420, 3008.611 2330.697 C 3024.749 2350.948, 3052.435 2376.816, 3076.137 2393.788 C 3102.270 2412.502, 3137.836 2430.170, 3171.412 2441.119 C 3261.608 2470.531, 3369.413 2468.438, 3471.500 2435.290 L 3486.500 2430.420 3486.755 2323.710 C 3486.895 2265.019, 3486.778 2217, 3486.495 2217 C 3486.213 2217, 3481.304 2218.998, 3475.586 2221.440 C 3448.693 2232.927, 3420.315 2241.082, 3393.500 2245.030 C 3375.553 2247.672, 3344.341 2248.671, 3329.500 2247.079 C 3258.302 2239.439, 3209.039 2200.528, 3186.145 2133.848 C 3170.339 2087.814, 3168.039 2023.495, 3180.487 1975.636 C 3202.150 1892.348, 3269.261 1841.397, 3357 1841.626 C 3391.884 1841.717, 3433.974 1850.226, 3469.849 1864.440 C 3477.567 1867.498, 3484.133 1870, 3484.441 1870 C 3484.748 1870, 3485 1822.557, 3485 1764.571 L 3485 1659.142 3479.511 1657.546 C 3470.022 1654.788, 3446.112 1649.243, 3430 1646.064 C 3379.456 1636.094, 3321.083 1631.957, 3275.500 1635.116 M 1984 2050.500 L 1984 2451 2110 2451 L 2236 2451 2236 2050.500 L 2236 1650 2110 1650 L 1984 1650 1984 2050.500 M 2322 2050.500 L 2322 2451 2447 2451 L 2572 2451 2572 2308 L 2572 2165 2710 2165 L 2848 2165 2848 2068.500 L 2848 1972 2710 1972 L 2572 1972 2572 1907.500 L 2572 1843 2727 1843 L 2882 1843 2882 1746.500 L 2882 1650 2602 1650 L 2322 1650 2322 2050.500 M 886.341 1768.614 C 833.812 1806.853, 784.809 1856.936, 753.464 1904.420 C 727.070 1944.401, 709.262 1980.354, 695.285 2021.876 C 687.756 2044.243, 687.629 2040.468, 696.574 2060.276 C 711.191 2092.648, 735.705 2128.805, 761.235 2155.650 C 802.801 2199.355, 855.307 2239.489, 901.070 2262.535 L 907.926 2265.988 908.882 2262.244 C 939.859 2140.943, 982.133 2029.740, 1036.883 1925.534 C 1044.097 1911.802, 1050 1900.313, 1050 1900.003 C 1050 1899.692, 1045.838 1896.983, 1040.750 1893.982 C 1019.720 1881.577, 993.476 1863.116, 976.920 1849.079 C 943.569 1820.803, 928.962 1805.527, 912.782 1782 C 909.189 1776.775, 904.800 1769.913, 903.029 1766.750 C 901.258 1763.588, 899.443 1760.774, 898.995 1760.497 C 898.548 1760.221, 892.853 1763.873, 886.341 1768.614 M 678.240 2156.718 C 680.020 2180.746, 688.774 2212.927, 703.749 2250.500 C 736.242 2332.026, 786.202 2403.352, 853.298 2464.006 C 859.153 2469.299, 884.375 2489.959, 884.648 2489.685 C 884.756 2489.578, 884.239 2482.967, 883.498 2474.995 C 879.439 2431.270, 881.192 2386.719, 888.672 2343.500 C 890.099 2335.250, 891.320 2327.879, 891.384 2327.119 C 891.449 2326.345, 887.111 2323.342, 881.500 2320.277 C 852.338 2304.350, 822.971 2285.482, 797.500 2266.306 C 754.802 2234.162, 709.213 2189.306, 684.120 2154.750 C 680.626 2149.938, 677.695 2146, 677.606 2146 C 677.518 2146, 677.803 2150.823, 678.240 2156.718 M 946.565 2353.851 C 943.324 2369.461, 940.043 2402.473, 939.343 2426.500 C 937.919 2475.421, 945.485 2512.276, 960.936 2531.683 C 970.563 2543.773, 1002.592 2559.631, 1047.389 2574.485 C 1095.966 2590.593, 1140.266 2598.528, 1195.856 2601.077 C 1225.538 2602.438, 1226.515 2602.256, 1235.680 2593.683 C 1255.643 2575.008, 1276.177 2527.155, 1293.984 2457.810 L 1299.811 2435.120 1294.655 2434.624 C 1291.820 2434.351, 1279.825 2433.405, 1268 2432.522 C 1208.587 2428.085, 1140.441 2415.823, 1079 2398.514 C 1045.436 2389.058, 1003.811 2374.470, 965.307 2358.668 L 947.115 2351.202 946.565 2353.851 M 1620.500 2386.243 C 1608.371 2391.509, 1569.667 2404.822, 1550.207 2410.421 C 1495.045 2426.294, 1439.769 2434.745, 1378.694 2436.643 L 1357.216 2437.310 1356.554 2442.405 C 1355.303 2452.031, 1348.936 2479.520, 1343.935 2496.884 C 1335.371 2526.619, 1324.635 2554.308, 1311.030 2581.750 C 1306.872 2590.137, 1303.559 2597, 1303.668 2597 C 1305.256 2597, 1334.699 2591.174, 1344.332 2588.953 C 1415.557 2572.536, 1485.546 2540.575, 1542.500 2498.461 C 1571.510 2477.010, 1598.533 2443.639, 1617.374 2406 C 1624.273 2392.217, 1628.590 2382.642, 1627.698 2383.102 C 1627.589 2383.158, 1624.350 2384.572, 1620.500 2386.243" stroke="none" fill="#04345d" fill-rule="evenodd"/></svg>